<?xml version="1.0" encoding="UTF-8"?>
<svg xmlns="http://www.w3.org/2000/svg" width="370.38" height="333.89" xmlns:xlink="http://www.w3.org/1999/xlink" viewBox="0 0 370.38 333.89">
  <defs>
    <radialGradient id="radial-gradient" cx="156.6" cy="165.23" fx="156.6" fy="165.23" r="69.26" gradientUnits="userSpaceOnUse">
      <stop offset="0" stop-color="#a7dfff"/>
      <stop offset=".06" stop-color="#92c4e0"/>
      <stop offset=".19" stop-color="#6c90a5"/>
      <stop offset=".31" stop-color="#4b6472"/>
      <stop offset=".43" stop-color="#304049"/>
      <stop offset=".55" stop-color="#1b2429"/>
      <stop offset=".66" stop-color="#0c1012"/>
      <stop offset=".76" stop-color="#030404"/>
      <stop offset=".86" stop-color="#000"/>
    </radialGradient>
    <filter id="drop-shadow-1" x="50.98" y="22.55" width="219.84" height="285.36" filterUnits="userSpaceOnUse">
      <feOffset dx="4.67" dy="6.54"/>
      <feGaussianBlur result="blur" stdDeviation="5"/>
      <feFlood flood-color="#3f3f3f" flood-opacity=".4"/>
      <feComposite in2="blur" operator="in"/>
      <feComposite in="SourceGraphic"/>
    </filter>
    <linearGradient id="linear-gradient" x1="95.55" y1="221.08" x2="216.84" y2="221.08" gradientUnits="userSpaceOnUse">
      <stop offset="0" stop-color="#808184"/>
      <stop offset=".2" stop-color="#8b9297"/>
      <stop offset=".53" stop-color="#a3b6be"/>
      <stop offset=".69" stop-color="#b9c6cc"/>
      <stop offset="1" stop-color="#f1f1f2"/>
    </linearGradient>
    <linearGradient id="linear-gradient-2" x1="63.6" y1="119.24" x2="156.19" y2="119.24" gradientUnits="userSpaceOnUse">
      <stop offset="0" stop-color="#fff"/>
      <stop offset=".34" stop-color="#e9eaea"/>
      <stop offset=".73" stop-color="#d6d8d9"/>
      <stop offset="1" stop-color="#d0d2d3"/>
    </linearGradient>
    <linearGradient id="linear-gradient-3" x1="156.16" y1="119.24" x2="248.76" y2="119.24" gradientUnits="userSpaceOnUse">
      <stop offset="0" stop-color="#a3b6be"/>
      <stop offset=".33" stop-color="#b9c6cc"/>
      <stop offset="1" stop-color="#f1f1f2"/>
    </linearGradient>
    <linearGradient id="linear-gradient-4" x1="193.67" y1="226.69" x2="251.04" y2="226.69" gradientUnits="userSpaceOnUse">
      <stop offset=".19" stop-color="#a6a8ab"/>
      <stop offset=".45" stop-color="#afb1b3"/>
      <stop offset=".88" stop-color="#c7c9cb"/>
      <stop offset="1" stop-color="#d0d2d3"/>
    </linearGradient>
    <linearGradient id="linear-gradient-5" x1="61.31" y1="226.51" x2="118.68" y2="226.51" gradientUnits="userSpaceOnUse">
      <stop offset=".19" stop-color="#d0d2d3"/>
      <stop offset=".5" stop-color="#d9dadb"/>
      <stop offset="1" stop-color="#f1f1f2"/>
    </linearGradient>
    <linearGradient id="linear-gradient-6" x1="156.18" y1="286.25" x2="156.18" y2="278.58" gradientUnits="userSpaceOnUse">
      <stop offset="0" stop-color="#808184"/>
      <stop offset=".39" stop-color="#8b9297"/>
      <stop offset="1" stop-color="#a3b6be"/>
    </linearGradient>
    <linearGradient id="linear-gradient-7" x1="156.18" y1="286.25" x2="156.18" y2="31.02" gradientUnits="userSpaceOnUse">
      <stop offset="0" stop-color="#231f20"/>
      <stop offset=".14" stop-color="#262223"/>
      <stop offset=".27" stop-color="#322e2f"/>
      <stop offset=".4" stop-color="#454243"/>
      <stop offset=".53" stop-color="#605d5e"/>
      <stop offset=".67" stop-color="#838181"/>
      <stop offset=".8" stop-color="#aeacad"/>
      <stop offset=".92" stop-color="#dfdfdf"/>
      <stop offset=".99" stop-color="#fff"/>
    </linearGradient>
    <radialGradient id="radial-gradient-2" cx="157.6" cy="166.23" fx="157.6" fy="166.23" r="69.59" gradientUnits="userSpaceOnUse">
      <stop offset="0" stop-color="#a7dfff"/>
      <stop offset=".02" stop-color="#a2d8f7"/>
      <stop offset=".13" stop-color="#7ca6be"/>
      <stop offset=".25" stop-color="#5b798b"/>
      <stop offset=".37" stop-color="#3f5460"/>
      <stop offset=".5" stop-color="#28353d"/>
      <stop offset=".62" stop-color="#161e22"/>
      <stop offset=".74" stop-color="#0a0d0f"/>
      <stop offset=".87" stop-color="#020303"/>
      <stop offset="1" stop-color="#000"/>
    </radialGradient>
  </defs>
  <g style="isolation: isolate;">
    <g id="Objects">
      <g>
        <circle cx="156.6" cy="164.7" r="69" style="fill: url(#radial-gradient); mix-blend-mode: screen;"/>
        <g style="filter: url(#drop-shadow-1);">
          <g>
            <polygon points="118.72 278.75 95.55 207.46 156.19 163.41 216.84 207.46 193.67 278.75 118.72 278.75" style="fill: url(#linear-gradient);"/>
            <polygon points="156.19 163.41 156.19 31.02 63.6 169.09 95.55 207.46 156.19 163.41" style="fill: url(#linear-gradient-2);"/>
            <polygon points="156.16 163.41 156.16 31.02 248.76 169.09 216.8 207.46 156.16 163.41" style="fill: url(#linear-gradient-3);"/>
            <polygon points="248.76 169.09 216.8 207.46 193.67 278.75 217.39 284.29 251.04 218.58 248.76 169.09" style="fill: url(#linear-gradient-4);"/>
            <polygon points="63.6 168.9 95.55 207.28 118.68 278.57 94.96 284.11 61.31 218.4 63.6 168.9" style="fill: url(#linear-gradient-5);"/>
            <polygon points="94.96 284.07 118.64 278.58 193.67 278.7 217.39 284.29 156.56 286.25 94.96 284.07" style="fill: url(#linear-gradient-6);"/>
          </g>
          <path d="M248.76,169.09L156.19,31.07v-.05l-.02.03-.02-.03v.05L63.67,168.98l-.07-.08-2.29,49.5,33.65,65.71.17-.04,61.43,2.17,60.83-1.95,33.65-65.71-2.29-49.5ZM118.66,278.58h0s-.01,0-.01,0h.01Z" style="fill: url(#linear-gradient-7); mix-blend-mode: overlay; opacity: .5;"/>
        </g>
        <path d="M260.86,170.37c0-.06-.04-.11-.06-.16-.01-.03,0-.07-.03-.09L156.63,14.83c-.06-.13-.15-.25-.29-.29-.06-.02-.11,0-.17,0-.05,0-.11-.02-.16,0-.14.04-.23.16-.29.29,0,.01-.02.02-.03.03v.02S51.85,169.72,51.85,169.72c0,0,0,0-.01,0-.2.07-.33.24-.34.45l-2.58,55.71c0,.09.01.17.05.25l37.87,73.95c.09.17.26.27.45.27.04,0,.08,0,.11-.01l.13-.03,69.06,2.45h.03l68.46-2.2c.08,0,.15-.03.22-.07.02,0,.03-.02.05-.03.07-.05.12-.1.16-.17,0,0,0,0,0,0l37.87-73.95c.04-.08.06-.16.05-.25l-2.58-55.7ZM89.75,212.89l65.89-47.87-15.74,47.95-50.15-.08ZM139.58,213.95l-25.61,78.01-25.34-78.08,50.95.08ZM156.32,166.09l15.27,46.92-30.66-.05,15.39-46.88ZM157.09,165.3l65.78,47.79-50.26-.08-15.53-47.72ZM223.72,214.07l-25.34,78.11-25.44-78.18,50.78.08ZM140.61,213.95l31.3.05,25.79,79.25-83.08-.13,26-79.17ZM223.42,212.22l-65.56-47.63,50.25,3.08,15.31,44.54ZM209.17,167.75l50.19,3.08-34.77,41.77-15.41-44.85ZM156.7,163.55V18.09l51.07,148.59-51.07-3.13ZM113.31,293.25l-25.53,5.92.63-82.53,24.9,76.62ZM199.04,293.39l24.91-76.64.63,82.67-25.54-6.03ZM208.83,166.75L157.85,18.44l101.54,151.41-50.57-3.1ZM155.66,163.54l-51.14,3.14L155.66,17.98v145.57ZM154.54,164.59l-65.71,47.74,15.35-44.65,50.36-3.09ZM87.77,212.39l-34.61-41.57,49.96-3.07-15.35,44.64ZM52.42,171.7l34.54,41.49-37.02,12.02,2.48-53.51ZM87.45,214.05l-.64,83.77-36.69-71.64,37.33-12.12ZM224.9,214.26l37.33,12.12-36.69,71.64-.64-83.77ZM225.26,213.35l18.56-22.3,16.1-19.34,2.48,53.71-37.15-12.07ZM103.47,166.75l-50.5,3.1L154.42,18.56l-50.96,148.19ZM156.61,301.75l-65.36-2.31,22.45-5.24c.09.08.19.13.32.13h84.29l22.94,5.36-64.64,2.08Z" style="fill: #fff; opacity: .8;"/>
        <circle cx="157.6" cy="165.7" r="69.33" style="fill: url(#radial-gradient-2); mix-blend-mode: screen;"/>
      </g>
    </g>
  </g>
</svg>